#!OML:ASF I:\golf\golf\golf 2\Subject 1\2002-09-07\Subject1.ASF
:FULLY-SPECIFIED
:DEGREES
257
root 2.17398 10.573 -2.12427 13.7502 -6.32332 -3.78539
lowerback 40.7764 8.26074 3.74111
upperback 17.4341 11.2917 6.67127
thorax -0.659504 5.22962 1.2575
lowerneck -7.87712 -6.92805 0.499348
upperneck 26.2391 -6.18043 -13.2659
head 9.01625 -3.99283 -5.22852
rclavicle -3.81667e-014 3.4191e-014
rhumerus 23.0952 0.226144 -72.0999
rradius 33.9857
rwrist -3.12311
rhand -44.5168 26.9904
rfingers 7.12502
rthumb -17.3186 -2.25802
lclavicle -3.81667e-014 3.4191e-014
lhumerus -35.8391 -42.4591 95.9782
lradius 98.969
lwrist -28.4241
lhand -51.4318 28.7924
lfingers 7.12502
lthumb -23.9628 57.317
rfemur -94.8937 -58.4251 38.8279
rtibia 134.313
rfoot -28.6084 12.244
rtoes -15.9012
lfemur -96.3306 18.3397 -23.0252
ltibia 124.519
lfoot -29.7507 -14.7624
ltoes -12.5447
258
root 2.17424 10.5572 -2.11179 13.7145 -6.43348 -3.8846
lowerback 40.7658 8.26048 3.82239
upperback 17.4665 11.3114 6.65691
thorax -0.60289 5.24465 1.20257
lowerneck -7.73124 -6.934 0.515622
upperneck 26.2444 -6.18435 -13.3028
head 8.98738 -3.99208 -5.23669
rclavicle -8.90555e-014 -4.6118e-014
rhumerus 22.8825 0.610747 -71.8843
rradius 34.0808
rwrist -3.05532
rhand -44.7286 26.7622
rfingers 7.12502
rthumb -17.5225 -2.46816
lclavicle -8.90555e-014 -4.6118e-014
lhumerus -35.8291 -42.4472 95.9537
lradius 99.0473
lwrist -28.3541
lhand -51.3497 29.1239
lfingers 7.12502
lthumb -23.884 57.6588
rfemur -94.6988 -58.4555 38.6428
rtibia 134.444
rfoot -28.7157 12.3639
rtoes -16.057
lfemur -96.3056 18.4733 -23.0276
ltibia 124.745
lfoot -30.0406 -14.1889
ltoes -13.4145
259
root 2.17619 10.5408 -2.10099 13.7849 -6.49527 -3.97918
lowerback 40.6614 8.20398 3.90416
upperback 17.4651 11.2646 6.6217
thorax -0.55177 5.22995 1.15252
lowerneck -7.45285 -6.89971 0.439201
upperneck 26.0948 -6.15733 -13.2414
head 8.89098 -3.97171 -5.17682
rclavicle 7.31528e-014 -1.82882e-014
rhumerus 22.7581 0.816868 -71.8987
rradius 34.0707
rwrist -2.66801
rhand -44.9404 26.6384
rfingers 7.12502
rthumb -17.7263 -2.57361
lclavicle 7.31528e-014 -1.82882e-014
lhumerus -35.8643 -42.4014 95.9368
lradius 98.8718
lwrist -28.5404
lhand -51.444 29.8315
lfingers 7.12502
lthumb -23.9745 58.3545
rfemur -94.8697 -58.5087 38.7495
rtibia 134.585
rfoot -28.709 12.5366
rtoes -16.2688
lfemur -96.4691 18.529 -23.0612
ltibia 124.978
lfoot -30.0481 -13.9209
ltoes -12.6509
260
root 2.17616 10.5279 -2.09404 13.7803 -6.4887 -4.00248
lowerback 40.7598 8.14754 3.89852
upperback 17.4292 11.1995 6.60081
thorax -0.616328 5.19541 1.14489
lowerneck -7.46966 -6.81045 0.427139
upperneck 26.1563 -6.03301 -13.2121
head 8.92768 -3.91471 -5.16052
rclavicle -9.54166e-015 5.1684e-014
rhumerus 22.6419 0.808261 -72.1133
rradius 34.1696
rwrist -2.20756
rhand -45.1412 26.5284
rfingers 7.12502
rthumb -17.9195 -2.66608
lclavicle -9.54166e-015 5.1684e-014
lhumerus -35.8214 -42.4048 95.8835
lradius 98.6739
lwrist -28.6292
lhand -51.5578 29.8692
lfingers 7.12502
lthumb -24.0836 58.3778
rfemur -94.9616 -58.6519 38.7885
rtibia 134.7
rfoot -28.7643 12.4967
rtoes -16.9235
lfemur -96.5106 18.484 -23.1243
ltibia 125.152
lfoot -29.973 -13.7182
ltoes -11.5366
261
root 2.17376 10.5172 -2.0894 13.7485 -6.41562 -3.96995
lowerback 40.8521 8.0695 3.84236
upperback 17.4072 11.0923 6.58173
thorax -0.672467 5.13893 1.1792
lowerneck -7.52914 -6.70366 0.52266
upperneck 26.1967 -5.88827 -13.2579
head 8.95828 -3.8473 -5.18717
rclavicle 8.90555e-014 2.46493e-014
rhumerus 22.4984 0.814836 -72.3563
rradius 34.3563
rwrist -1.84965
rhand -45.4014 26.4027
rfingers 7.12502
rthumb -18.1698 -2.76861
lclavicle 8.90555e-014 2.46493e-014
lhumerus -35.7847 -42.3017 95.817
lradius 98.567
lwrist -29.0068
lhand -51.6462 30.0992
lfingers 7.12502
lthumb -24.1683 58.5966
rfemur -95.0092 -58.8304 38.79
rtibia 134.797
rfoot -28.8668 12.3691
rtoes -17.6324
lfemur -96.5538 18.3382 -23.2243
ltibia 125.287
lfoot -29.878 -13.4546
ltoes -10.7969
262
root 2.17194 10.5058 -2.08281 13.7736 -6.37953 -4.05071
lowerback 40.7681 8.01279 3.89013
upperback 17.4067 11.0397 6.58545
thorax -0.641002 5.11743 1.18473
lowerneck -7.32451 -6.65545 0.59531
upperneck 26.0542 -5.85329 -13.258
head 8.86859 -3.81826 -5.1773
rclavicle -3.49861e-014 6.67916e-014
rhumerus 22.3458 0.867253 -72.4912
rradius 34.4541
rwrist -1.93533
rhand -45.6658 26.7776
rfingers 7.12502
rthumb -18.4242 -2.36987
lclavicle -3.49861e-014 6.67916e-014
lhumerus -35.963 -42.217 95.8924
lradius 98.595
lwrist -29.4605
lhand -51.536 30.6122
lfingers 7.12502
lthumb -24.0627 59.1236
rfemur -95.0207 -58.8564 38.8612
rtibia 134.897
rfoot -28.8899 12.3669
rtoes -17.6357
lfemur -96.7453 18.3204 -23.2467
ltibia 125.462
lfoot -29.6975 -13.2612
ltoes -10.5851
263
root 2.1711 10.4947 -2.07521 13.7796 -6.42441 -4.09327
lowerback 40.6811 8.01908 3.89266
upperback 17.422 11.0438 6.59266
thorax -0.599788 5.12096 1.19753
lowerneck -7.22105 -6.65187 0.517284
upperneck 26.1657 -5.85843 -13.1136
head 8.89684 -3.81165 -5.11656
rclavicle -3.81667e-014 3.18055e-015
rhumerus 22.2297 0.932219 -72.5135
rradius 34.5032
rwrist -2.36307
rhand -45.7859 27.1221
rfingers 7.12502
rthumb -18.5398 -2.01445
lclavicle -3.81667e-014 3.18055e-015
lhumerus -36.1257 -42.2028 95.9779
lradius 98.6599
lwrist -29.7573
lhand -51.419 31.0154
lfingers 7.12502
lthumb -23.9504 59.5416
rfemur -95.0476 -58.9107 38.853
rtibia 134.997
rfoot -28.8319 12.5167
rtoes -17.2931
lfemur -96.8717 18.3407 -23.3022
ltibia 125.655
lfoot -29.577 -12.9299
ltoes -11.4814
264
root 2.16922 10.4865 -2.06894 13.7852 -6.47414 -4.07882
lowerback 40.636 8.09185 3.8463
upperback 17.4358 11.1134 6.62069
thorax -0.585879 5.15152 1.22883
lowerneck -7.28601 -6.71669 0.591031
upperneck 26.4049 -5.93215 -13.1282
head 8.98192 -3.84296 -5.15713
rclavicle -2.22639e-014 1.74931e-014
rhumerus 22.0682 0.788068 -72.5215
rradius 34.6195
rwrist -2.63566
rhand -45.8939 27.1073
rfingers 7.12502
rthumb -18.6436 -2.0193
lclavicle -2.22639e-014 1.74931e-014
lhumerus -36.0673 -42.3624 95.9841
lradius 98.5774
lwrist -30.1123
lhand -51.5605 31.6936
lfingers 7.12502
lthumb -24.0861 60.2019
rfemur -95.1752 -58.9924 38.8635
rtibia 135.081
rfoot -28.6997 12.6657
rtoes -17.1346
lfemur -96.9392 18.2919 -23.3721
ltibia 125.783
lfoot -29.4638 -12.6847
ltoes -11.9025
265
root 2.16589 10.4807 -2.06497 13.792 -6.46614 -4.15656
lowerback 40.8172 8.01699 3.79747
upperback 17.3876 11.013 6.59091
thorax -0.693287 5.09479 1.2373
lowerneck -7.58772 -6.63831 0.646057
upperneck 26.4995 -5.78046 -13.3038
head 9.07601 -3.7963 -5.23771
rclavicle 6.99722e-014 -2.54444e-014
rhumerus 22.0533 0.966479 -72.7339
rradius 34.7275
rwrist -2.74445
rhand -46.0072 27.0079
rfingers 7.12502
rthumb -18.7526 -2.10818
lclavicle 6.99722e-014 -2.54444e-014
lhumerus -35.9483 -42.1631 95.8177
lradius 98.4965
lwrist -30.1474
lhand -51.6285 31.7509
lfingers 7.12502
lthumb -24.1513 60.2506
rfemur -95.2352 -59.035 38.9736
rtibia 135.148
rfoot -28.6497 12.6891
rtoes -17.15
lfemur -97.0543 18.2946 -23.3269
ltibia 125.922
lfoot -29.3214 -12.6633
ltoes -11.0666
266
root 2.16643 10.4708 -2.05941 13.8104 -6.48621 -4.18099
lowerback 40.809 7.99174 3.78891
upperback 17.3677 10.9798 6.57364
thorax -0.710605 5.07838 1.23372
lowerneck -7.50812 -6.62904 0.78786
upperneck 26.4026 -5.76504 -13.4746
head 9.01402 -3.79015 -5.30913
rclavicle 4.45278e-014 4.05521e-014
rhumerus 21.9542 0.978026 -72.8736
rradius 34.7573
rwrist -2.85567
rhand -45.8746 26.6478
rfingers 7.12502
rthumb -18.6251 -2.48058
lclavicle 4.45278e-014 4.05521e-014
lhumerus -36.0327 -42.2093 95.8289
lradius 98.5786
lwrist -29.6935
lhand -51.5918 30.7911
lfingers 7.12502
lthumb -24.1162 59.2954
rfemur -95.3972 -59.1693 39.0435
rtibia 135.259
rfoot -28.6754 12.796
rtoes -17.0904
lfemur -97.2546 18.3244 -23.4166
ltibia 126.122
lfoot -29.2341 -12.4816
ltoes -10.4686
